<svg xmlns="http://www.w3.org/2000/svg" xmlns:xlink="http://www.w3.org/1999/xlink" version="1.1" width="256" height="256" viewBox="0 0 256 256" xml:space="preserve">
<g style="stroke: none; stroke-width: 0; stroke-dasharray: none; stroke-linecap: butt; stroke-linejoin: miter; stroke-miterlimit: 10; fill: none; fill-rule: nonzero; opacity: 1;" transform="translate(1.4065934065934016 1.4065934065934016) scale(2.81 2.81)">
	<path d="M 76.762 69.008 H 52.471 c -1.104 0 -2 -0.896 -2 -2 s 0.896 -2 2 -2 h 24.291 c 1.104 0 2 0.896 2 2 S 77.866 69.008 76.762 69.008 z" style="stroke: none; stroke-width: 1; stroke-dasharray: none; stroke-linecap: butt; stroke-linejoin: miter; stroke-miterlimit: 10; fill: rgb(0,0,0); fill-rule: nonzero; opacity: 1;" transform=" matrix(1 0 0 1 0 0) " stroke-linecap="round"/>
	<path d="M 54.127 24.992 H 13.239 c -1.104 0 -2 -0.896 -2 -2 s 0.896 -2 2 -2 h 40.888 c 1.104 0 2 0.896 2 2 S 55.231 24.992 54.127 24.992 z" style="stroke: none; stroke-width: 1; stroke-dasharray: none; stroke-linecap: butt; stroke-linejoin: miter; stroke-miterlimit: 10; fill: rgb(0,0,0); fill-rule: nonzero; opacity: 1;" transform=" matrix(1 0 0 1 0 0) " stroke-linecap="round"/>
	<path d="M 76.762 47 H 32.386 c -1.104 0 -2 -0.896 -2 -2 s 0.896 -2 2 -2 h 44.376 c 1.104 0 2 0.896 2 2 S 77.866 47 76.762 47 z" style="stroke: none; stroke-width: 1; stroke-dasharray: none; stroke-linecap: butt; stroke-linejoin: miter; stroke-miterlimit: 10; fill: rgb(0,0,0); fill-rule: nonzero; opacity: 1;" transform=" matrix(1 0 0 1 0 0) " stroke-linecap="round"/>
	<path d="M 26.543 52.843 c -4.324 0 -7.842 -3.519 -7.842 -7.843 s 3.518 -7.842 7.842 -7.842 c 4.325 0 7.843 3.518 7.843 7.842 S 30.868 52.843 26.543 52.843 z M 26.543 41.158 c -2.119 0 -3.842 1.724 -3.842 3.842 c 0 2.119 1.724 3.843 3.842 3.843 c 2.119 0 3.843 -1.724 3.843 -3.843 C 30.386 42.881 28.662 41.158 26.543 41.158 z" style="stroke: none; stroke-width: 1; stroke-dasharray: none; stroke-linecap: butt; stroke-linejoin: miter; stroke-miterlimit: 10; fill: rgb(0,0,0); fill-rule: nonzero; opacity: 1;" transform=" matrix(1 0 0 1 0 0) " stroke-linecap="round"/>
	<path d="M 46.629 74.851 c -4.324 0 -7.842 -3.519 -7.842 -7.843 s 3.518 -7.843 7.842 -7.843 s 7.842 3.519 7.842 7.843 S 50.953 74.851 46.629 74.851 z M 46.629 63.165 c -2.119 0 -3.842 1.724 -3.842 3.843 s 1.724 3.843 3.842 3.843 c 2.118 0 3.842 -1.724 3.842 -3.843 S 48.747 63.165 46.629 63.165 z" style="stroke: none; stroke-width: 1; stroke-dasharray: none; stroke-linecap: butt; stroke-linejoin: miter; stroke-miterlimit: 10; fill: rgb(0,0,0); fill-rule: nonzero; opacity: 1;" transform=" matrix(1 0 0 1 0 0) " stroke-linecap="round"/>
	<path d="M 59.97 30.834 c -4.324 0 -7.843 -3.518 -7.843 -7.842 s 3.519 -7.842 7.843 -7.842 s 7.843 3.518 7.843 7.842 S 64.294 30.834 59.97 30.834 z M 59.97 19.15 c -2.119 0 -3.843 1.724 -3.843 3.842 s 1.724 3.842 3.843 3.842 s 3.843 -1.724 3.843 -3.842 S 62.089 19.15 59.97 19.15 z" style="stroke: none; stroke-width: 1; stroke-dasharray: none; stroke-linecap: butt; stroke-linejoin: miter; stroke-miterlimit: 10; fill: rgb(0,0,0); fill-rule: nonzero; opacity: 1;" transform=" matrix(1 0 0 1 0 0) " stroke-linecap="round"/>
	<path d="M 40.787 69.008 H 13.239 c -1.104 0 -2 -0.896 -2 -2 s 0.896 -2 2 -2 h 27.548 c 1.104 0 2 0.896 2 2 S 41.891 69.008 40.787 69.008 z" style="stroke: none; stroke-width: 1; stroke-dasharray: none; stroke-linecap: butt; stroke-linejoin: miter; stroke-miterlimit: 10; fill: rgb(0,0,0); fill-rule: nonzero; opacity: 1;" transform=" matrix(1 0 0 1 0 0) " stroke-linecap="round"/>
	<path d="M 20.701 47 h -7.462 c -1.104 0 -2 -0.896 -2 -2 s 0.896 -2 2 -2 h 7.462 c 1.104 0 2 0.896 2 2 S 21.805 47 20.701 47 z" style="stroke: none; stroke-width: 1; stroke-dasharray: none; stroke-linecap: butt; stroke-linejoin: miter; stroke-miterlimit: 10; fill: rgb(0,0,0); fill-rule: nonzero; opacity: 1;" transform=" matrix(1 0 0 1 0 0) " stroke-linecap="round"/>
	<path d="M 76.762 24.992 H 65.813 c -1.104 0 -2 -0.896 -2 -2 s 0.896 -2 2 -2 h 10.949 c 1.104 0 2 0.896 2 2 S 77.866 24.992 76.762 24.992 z" style="stroke: none; stroke-width: 1; stroke-dasharray: none; stroke-linecap: butt; stroke-linejoin: miter; stroke-miterlimit: 10; fill: rgb(0,0,0); fill-rule: nonzero; opacity: 1;" transform=" matrix(1 0 0 1 0 0) " stroke-linecap="round"/>
	<path d="M 75.833 90 H 14.167 C 6.355 90 0 83.645 0 75.833 V 14.167 C 0 6.355 6.355 0 14.167 0 h 61.667 C 83.645 0 90 6.355 90 14.167 v 61.667 C 90 83.645 83.645 90 75.833 90 z M 14.167 4 C 8.561 4 4 8.561 4 14.167 v 61.667 C 4 81.439 8.561 86 14.167 86 h 61.667 C 81.439 86 86 81.439 86 75.833 V 14.167 C 86 8.561 81.439 4 75.833 4 H 14.167 z" style="stroke: none; stroke-width: 1; stroke-dasharray: none; stroke-linecap: butt; stroke-linejoin: miter; stroke-miterlimit: 10; fill: rgb(0,0,0); fill-rule: nonzero; opacity: 1;" transform=" matrix(1 0 0 1 0 0) " stroke-linecap="round"/>
</g>
</svg>